<svg width="50" height="50" viewBox="0 0 50 50" fill="none" xmlns="http://www.w3.org/2000/svg">
<path d="M44.8873 16.5407C44.3013 15.9548 43.5066 15.6257 42.6779 15.6257C41.8493 15.6257 41.0546 15.9548 40.4685 16.5407L24.9998 32.0094L9.53103 16.5407C8.94165 15.9714 8.15227 15.6564 7.3329 15.6636C6.51354 15.6707 5.72975 15.9993 5.15035 16.5787C4.57095 17.1581 4.2423 17.9419 4.23518 18.7613C4.22806 19.5806 4.54304 20.37 5.11229 20.9594L22.7904 38.6375C23.3764 39.2234 24.1711 39.5525 24.9998 39.5525C25.8284 39.5525 26.6231 39.2234 27.2092 38.6375L44.8873 20.9594C45.4731 20.3734 45.8022 19.5787 45.8022 18.75C45.8022 17.9214 45.4731 17.1267 44.8873 16.5407Z" fill="white"/>
</svg>
