<svg width="218" height="218" viewBox="0 0 218 218" fill="none" xmlns="http://www.w3.org/2000/svg">
<g opacity="0.3" clip-path="url(#clip0_144_71)">
<path d="M86.7214 40.4411C95.7242 37.5159 105.215 36.3926 114.652 37.1353C124.089 37.878 133.287 40.4722 141.722 44.7697C150.156 49.0672 157.661 54.9839 163.809 62.182C169.957 69.3801 174.627 77.7186 177.552 86.7214C183.459 104.903 181.902 124.688 173.223 141.722C164.544 158.756 149.453 171.644 131.271 177.552C122.269 180.477 112.778 181.6 103.341 180.858C93.9038 180.115 84.7056 177.521 76.2712 173.223C59.2372 164.544 46.3487 149.453 40.441 131.271C34.5333 113.089 36.0904 93.3053 44.7696 76.2713C53.4489 59.2373 68.5394 46.3488 86.7214 40.4411ZM91.1764 54.1522C63.2058 63.2403 46.8965 91.6564 52.3359 119.827L80.238 110.761C79.4008 97.9211 87.3351 85.7174 100.086 81.5743C112.838 77.4311 126.43 82.6405 133.3 93.5205L161.202 84.4546C149.044 58.4667 119.147 45.064 91.1764 54.1522ZM126.816 163.841C154.787 154.752 171.096 126.336 165.657 98.1656L137.755 107.232C138.592 120.072 130.658 132.275 117.906 136.419C105.155 140.562 91.563 135.352 84.693 124.472L56.7909 133.538C68.9488 159.526 98.8458 172.929 126.816 163.841ZM104.541 95.2854C100.905 96.4669 97.8869 99.0446 96.151 102.451C94.4152 105.858 94.1038 109.815 95.2853 113.451C96.4668 117.088 99.0445 120.106 102.451 121.842C105.858 123.578 109.815 123.889 113.451 122.707C117.088 121.526 120.106 118.948 121.842 115.541C123.578 112.135 123.889 108.178 122.707 104.541C121.526 100.905 118.948 97.8869 115.541 96.1511C112.135 94.4152 108.178 94.1038 104.541 95.2854Z" fill="#4F4F4F"/>
</g>
<defs>
<clipPath id="clip0_144_71">
<rect width="173" height="173" fill="white" transform="translate(0 53.46) rotate(-18)"/>
</clipPath>
</defs>
</svg>
