<svg width="100" height="100" viewBox="0 0 100 100" fill="none" xmlns="http://www.w3.org/2000/svg">
<rect x="13" y="40" width="71" height="44" rx="22" fill="#F3F3F3"/>
<path d="M50.0001 16.6667C67.0001 16.6667 81.0418 29.375 83.0834 45.8333H66.1667C64.2917 38.625 57.7501 33.3333 50.0001 33.3333C42.2501 33.3333 35.7084 38.625 33.8751 45.8333H16.9167C18.9584 29.375 33.0001 16.6667 50.0001 16.6667Z" fill="#EF1B22"/>
<path d="M49.9999 8.33334C26.9999 8.33334 8.33325 27 8.33325 50C8.33325 73 26.9999 91.6667 49.9999 91.6667C72.9999 91.6667 91.6666 73 91.6666 50C91.6666 27 72.9999 8.33334 49.9999 8.33334ZM49.9999 16.6667C66.9999 16.6667 81.0416 29.375 83.0833 45.8333H66.1666C64.2916 38.625 57.7499 33.3333 49.9999 33.3333C42.2499 33.3333 35.7083 38.625 33.8749 45.8333H16.9166C18.9583 29.375 32.9999 16.6667 49.9999 16.6667ZM58.3332 50C58.3332 54.5833 54.5833 58.3333 49.9999 58.3333C45.4166 58.3333 41.6666 54.5833 41.6666 50C41.6666 45.4167 45.4166 41.6667 49.9999 41.6667C54.5833 41.6667 58.3332 45.4167 58.3332 50ZM49.9999 83.3333C32.9999 83.3333 18.9583 70.625 16.9166 54.1667H33.8333C35.6666 61.375 42.2083 66.6667 49.9583 66.6667C57.7083 66.6667 64.2499 61.375 66.0832 54.1667H82.9999C81.0416 70.625 66.9999 83.3333 49.9999 83.3333Z" fill="#090909"/>
</svg>
